<mxfile host="app.diagrams.net" modified="2024-07-18T11:36:43.541Z" agent="Mozilla/5.0 (Windows NT 10.0; Win64; x64) AppleWebKit/537.36 (KHTML, like Gecko) Chrome/126.0.0.0 Safari/537.36" version="24.6.5" etag="qfN0Dh-uRBjb-a4oY0yn" type="github">
  <diagram name="Page-1" id="0Sty05EHbGVGHqZyFyaM">
    <mxGraphModel>
      <root>
        <mxCell id="0" />
        <mxCell id="1" parent="0" />
      </root>
    </mxGraphModel>
  </diagram>
</mxfile>
